<mxfile host="app.diagrams.net" modified="2024-05-07T19:19:30.342Z" agent="Mozilla/5.0 (Macintosh; Intel Mac OS X 10.15; rv:125.0) Gecko/20100101 Firefox/125.0" etag="tVTRdWhBCLt1aG7EuAYU" version="24.3.0" type="github">
  <diagram name="Page-1" id="yRQ3IOpucz02juWziZWn">
    <mxGraphModel dx="1026" dy="610" grid="1" gridSize="10" guides="1" tooltips="1" connect="1" arrows="1" fold="1" page="1" pageScale="1" pageWidth="850" pageHeight="1100" math="0" shadow="0">
      <root>
        <mxCell id="0" />
        <mxCell id="1" parent="0" />
        <mxCell id="yYz-vqZkxL4f6Y4ajkZT-7" style="edgeStyle=orthogonalEdgeStyle;rounded=0;orthogonalLoop=1;jettySize=auto;html=1;" edge="1" parent="1" source="yYz-vqZkxL4f6Y4ajkZT-3" target="yYz-vqZkxL4f6Y4ajkZT-4">
          <mxGeometry relative="1" as="geometry" />
        </mxCell>
        <mxCell id="yYz-vqZkxL4f6Y4ajkZT-3" value="Shiny App" style="shape=image;verticalLabelPosition=bottom;labelBackgroundColor=default;verticalAlign=top;aspect=fixed;imageAspect=0;image=data:image/svg+xml,PHN2ZyB4bWw6c3BhY2U9InByZXNlcnZlIiBzdHlsZT0iZW5hYmxlLWJhY2tncm91bmQ6bmV3IDAgMCAyNTIxIDI5MTE7IiB2aWV3Qm94PSIwIDAgMjUyMSAyOTExIiB5PSIwcHgiIHg9IjBweCIgeG1sbnM6eGxpbms9Imh0dHA6Ly93d3cudzMub3JnLzE5OTkveGxpbmsiIHhtbG5zPSJodHRwOi8vd3d3LnczLm9yZy8yMDAwL3N2ZyIgaWQ9IkxheWVyXzEiIHZlcnNpb249IjEuMSI+JiN4YTs8c3R5bGUgdHlwZT0idGV4dC9jc3MiPiYjeGE7CS5zdDB7ZmlsbDojMDA4OERBO30mI3hhOwkuc3Qxe2ZpbGw6I0UyQjA1ODt9JiN4YTsJLnN0MntvcGFjaXR5OjAuOTtmaWxsOiNGRkZGRkY7ZW5hYmxlLWJhY2tncm91bmQ6bmV3ICAgIDt9JiN4YTsJLnN0M3tmaWxsOm5vbmU7fSYjeGE7CS5zdDR7b3BhY2l0eTowLjI1O2ZpbGw6dXJsKCNTVkdJRF8xXyk7ZW5hYmxlLWJhY2tncm91bmQ6bmV3ICAgIDt9JiN4YTsJLnN0NXtmaWxsOiMwMDc4QkU7fSYjeGE7PC9zdHlsZT4mI3hhOzxnIGlkPSJMYXllcl8xXzAwMDAwMDE2Nzk3NzM4ODk0NDM5NTQ0OTcwMDAwMDAzMzE4ODEwMzAyMTY4MTUxNzM5XyI+JiN4YTsJPGc+JiN4YTsJCTxwYXRoIGQ9Ik0yNDIwLjUsNjY5LjhsLTk1My4xLTU1MC40TDEyNjAuNSwwbC0yMDYuOSwxMTkuNEwxMDAuNSw2NjkuOEwwLDcyNy43djE0NTUuNWwxMDAuNSw1OGw5NjUuMSw1NTcuMiYjeEE7JiM5OyYjOTsmIzk7bDE5NS4yLDExMi41bDE5NS4yLTExMi41bDk2NS4xLTU1Ny4ybDk5LjgtNTcuNlY3MjcuN0wyNDIwLjUsNjY5Ljh6IiBjbGFzcz0ic3QwIi8+JiN4YTsJCTxwYXRoIGQ9Ik0xMjYwLjUsMjE3MS42YzEtMSwyLjEtMi4xLDMuMS0zLjFoLTFDMTI2Mi4yLDIxNjkuNSwxMjYxLjUsMjE3MC42LDEyNjAuNSwyMTcxLjZ6IiBjbGFzcz0ic3QxIi8+JiN4YTsJCTxwYXRoIGQ9Ik00MjMuOCwxNTY4TDQyMy44LDE1NjhDNDEyLjUsMTU2Ny43LDQyMCwxNTY4LDQyMy44LDE1Njh6IE00MjMuNSwxNTY4Yy0xMS0wLjMtNi4yLDAtMi40LDBoNS44aC0wLjNINDIzLjUmI3hBOyYjOTsmIzk7JiM5O0M0MjUuOSwxNTY4LDQyNi45LDE1NjguNCw0MjMuNSwxNTY4eiBNNzA3LjksMTQwMC42YzIzLjYtOTEuNS04Ny40LTIxMy40LTk2LjYtMjI1Yy0wLjEtMC4xLTAuMi0wLjItMC4zLTAuNCYjeEE7JiM5OyYjOTsmIzk7Yy0xMzMuMi0xMzYuMy02NC43LTI3Mi40LDI4LjMtMjU3LjRjNjYuOSwxMSwzMi4zLDEwOS4xLDY4LjMsMTE4LjdoMC43YzIxLjYsMi4xLDYzLjgtNDkuOCw3MC02Ny4zJiN4QTsmIzk7JiM5OyYjOTtjMjQtNjcuOS0xMTQuNi0xMDkuNS0xNTYuOC0xMDYuN2MtODQuNyw1LjEtMTQwLjMsNTEuMS0xNzQuMywxMjdjLTYyLjQsMTM5LjYsNTQuMiwyMzIuNiwxMjQuOSwzMjguNCYjeEE7JiM5OyYjOTsmIzk7YzUzLjUsNzIuNCw1MS4xLDEzNi45LTE0LjQsMTk5Yy03Miw2OC4zLTE0NS4yLTI4LjUtMTU0LjgtOTQuN2MtOC42LTYwLjctMTguNS0xMDAuMi02OS4zLTIzYy00Nyw3MS43LDE4LjUsMTU5LjcsNzcuNywxNjkmI3hBOyYjOTsmIzk7JiM5O0M0MjUuMywxNTY5LjIsNjQ1LjcsMTYxNy41LDcwNy45LDE0MDAuNnogTTE2MjguNCwxNzg0LjVjLTMyNS4yLDI5LjUtODAzLjksNzMuNC05MDQuNyw0MjUuNWMtMC43LDIuMS0yLjQsMy4xLTQuNSwyLjQmI3hBOyYjOTsmIzk7JiM5O2MtMS0wLjMtMS43LTAuNy0yLjEtMS43QzYxOC4zLDIwNDEuOSw0MDYsMTkxOCwyMDksMTkyMy45Yy0yLjEsMC4zLTMuOC0wLjctNC4xLTIuN3MwLjctMy44LDIuNy00LjEmI3hBOyYjOTsmIzk7JiM5O2M1MDcuMS0yNTEuOCwxMDI1LjEtMTMxLjEsMTU3Mi43LTIyOC45YzIyOS41LTYwLjEsMzcyLjEtMTY3LjIsNDQ5LjYtMzQ5LjRjMTIuOS0yMi4yLDEyLjItNTYuNS0yMy41LTMyLjEmI3hBOyYjOTsmIzk7JiM5O2MtNTUuMiwzNy40LTEwNi4xLDkxLjYtMTY2LjEsMTIwLjhjLTIuNywxLjQtNS44LDIuNy04LjksMy44Yy0xLDAuMy0xLjcsMS40LTIuMSwyLjRjLTE3My45LDM5Ni44LTY1Ny44LDY5LjctODkuOS0xMyYjeEE7JiM5OyYjOTsmIzk7YzEuNC0wLjMsMi40LTEuNCwyLjQtMi40bDMyLTEwNGMwLjctMi4xLTAuNy0zLjgtMi40LTQuNWMtMS40LTAuMy0zLjEsMC4zLTMuOCwxLjRjLTEzLDE5LjItMjcuNCwzNy40LTQyLjksNTQuNiYjeEE7JiM5OyYjOTsmIzk7Yy0yMC4yLDIxLjMtMzYsMzQuMy00OCwzOS4xYy0xMy43LDUuMS0yOC4xLDguMi00Mi41LDguOWMtMTcuMiwxLTMxLjktNS44LTQzLjItMjAuMmMtMTEuMy0xNC40LTE3LjUtMzUuNy0xOC45LTYzLjgmI3hBOyYjOTsmIzk7JiM5O2MtMC4zLTQuNS0wLjMtOS42LDAtMTUuMWMwLjMtMi4xLTAuNy0zLjgtMi40LTQuNWMtMi4xLTAuMy0zLjgsMC43LTQuNSwyLjRjLTUuNSwxMC42LTExLDIwLjYtMTYuNSwyOS41JiN4QTsmIzk7JiM5OyYjOTtjLTE2LjEsMjguMS0zNi40LDUzLjktNTkuNCw3Ni45Yy0yMi42LDIyLjYtNDQuNiwzNC43LTY0LjgsMzZjLTM4LjEsMi40LTU4LjctMTkuMi02MS40LTY0LjVjLTIuNy00My4yLDE0LjQtMTMyLjEsNTEuNS0yNjQuNSYjeEE7JiM5OyYjOTsmIzk7YzIuMS01LjgsMi43LTEyLDIuNC0xNy44Yy0wLjctMTItNy41LTE2LjgtMjEuNi0xNS44Yy0xNi4xLDEuNC0zMS42LDcuOS00NC4zLDE4LjVjLTE1LjgsMTMuNC0yOC44LDI5LjktMzguMSw0OC40JiN4QTsmIzk7JiM5OyYjOTtjLTExLjMsMjAuNi0yMS4zLDQxLjktMzAuNSw2My41Yy05LjYsMjMuNy0xNy41LDQ4LjQtMjMuNyw3My40Yy02LjksMjcuOC0xMi43LDUxLjEtMTYuNSw2OS4zYy00LjEsMTguOS03LjksMzguOC0xMS43LDU5LjQmI3hBOyYjOTsmIzk7JiM5O2MtMi43LDE0LjQtNS44LDMyLjMtNi41LDM1bC0wLjcsMi43YzAsMC05My41LDYuNS05NC4zLDYuMmMtMi0xNi44LDE2LjctODAuOSwxOC43LTkwLjZjLTE3LjEsMjkuOS0yMy44LDM5LjQtMzcuNiw1Ny43JiN4QTsmIzk7JiM5OyYjOTtjLTguOSwxMS4zLTE4LjYsMjIuMS0yOC44LDMyLjNjLTIyLjYsMjIuNi00NC42LDM0LjctNjQuOCwzNmMtMS40LDAtMi43LDAtNC4xLDBjLTMzLjMsMC01Mi4xLTI2LjEtNTUuMi03Ny41JiN4QTsmIzk7JiM5OyYjOTtjLTAuNy0xMC4zLTEtMjAuNi0wLjctMzEuMmMwLjMtMi4xLTAuNy0zLjgtMi40LTQuNWMtMi4xLTAuMy0zLjgsMC43LTQuNSwyLjRjLTUxLjgsOTUtOTguNSwxNDMuMS0xNDEuNywxNDUuOCYjeEE7JiM5OyYjOTsmIzk7Yy0zOC4xLDIuNC01OC43LTIwLjItNjEuOC02Ny42Yy0zLjQtNTIuNSwxMS0xMjkuNCw0Mi45LTIyOC4yYzYuOS0yNC40LDkuOS00MS4yLDkuMy01MC4xYy0xLTEzLjctNy4yLTE1LjQtMTIuNC0xNS40aC0xLjQmI3hBOyYjOTsmIzk7JiM5O2MtNC41LDAuMy0xNC4xLDMuMS0zNC4zLDE1LjhjLTE3LjgsMTEuNy0zMy4zLDI2LjEtNDYsNDIuOWMtMTQuOCwxOS4yLTI2LjQsNDAuOC0zNSw2My41Yy04LjksMjQtMTYuMSw0NC45LTIxLjMsNjIuNCYjeEE7JiM5OyYjOTsmIzk7cy0xMC4zLDM5LjEtMTUuNCw2My44cy05LjYsNDYtMTMuNyw2MS44Yy00LjEsMTUuOC04LjIsMzQtMTIuNCw1NC45bC0wLjcsMi43bC05MC42LDUuOGMtMi4xLDAtMy44LTEuNC0zLjgtMy40JiN4QTsmIzk7JiM5OyYjOTtjMC0wLjMsMC0wLjcsMC0xLjRsMCwwYzEzLjQtNDYuMywzMi4zLTEyMS41LDU2LjMtMjIzYzI0LTEwMS42LDQ2LTE4Mi45LDYzLjgtMjQxLjJjMTUuNC01MC44LDMzLjYtMTAwLjksNTQuOS0xNDkuMyYjeEE7JiM5OyYjOTsmIzk7YzE2LjUtMzcuNywzOC44LTczLjEsNjUuOS0xMDQuM2MyNS43LTI4LjgsNTQuNi00NC4zLDg1LjEtNDYuM2MzMi4zLTIuMSw0OS40LDE0LjEsNTEuOCw0Ny40YzEuNCwyMi4zLTUuMSw1Mi4yLTE5LjIsODkuNiYjeEE7JiM5OyYjOTsmIzk7Yy0yNS43LDY2LjItNjguNiwxNDMuNC0xMjgsMjI5LjVjLTEuNCwxLjQtMS40LDMuOCwwLDUuMXMzLjgsMS40LDUuMSwwYzEwLjMtNy45LDIxLjMtMTUuMSwzMi45LTIwLjljMTcuMi04LjksMzYtMTQuMSw1NS42LTE1LjgmI3hBOyYjOTsmIzk7JiM5O2MzNi43LTIuNCw1Ni4zLDE0LjQsNTguNyw0OS44YzEsMTMtMC4zLDI2LjEtNC4xLDM4LjRjLTMuNCwxMS4zLTcuMiwyNC43LTExLjcsMzkuNWMtNC4xLDE0LjgtNy41LDI3LjEtMTAuMywzNi40JiN4QTsmIzk7JiM5OyYjOTtjLTIuNyw5LjYtNi4yLDIyLjMtMTAuNiwzOC40Yy00LjUsMTYuMS03LjksMzAuMi05LjksNDEuMmMtNi4yLDI3LjgtOC42LDUwLjEtNy41LDY2LjJjMS40LDIwLjYsOS42LDIwLjYsMTIuNCwyMC42aDEmI3hBOyYjOTsmIzk7JiM5O2MzNC43LTIuMSw3NS41LTYyLjQsMTIxLjgtMTc5LjFjMC4zLTAuNywwLjMtMSwwLjctMS43YzEwLjYtMzguNCwyNC03Ni4yLDQwLjEtMTEyLjVjMTkuMi00Mi4yLDQyLjUtNjQuNSw3MC02Ni4ybDU0LjktMi43JiN4QTsmIzk7JiM5OyYjOTtjMi4xLDAsMy44LDEuNCwzLjgsMy40YzAsMS0wLjMsMi4xLTEsMi43bDAsMGMtOC42LDguMi0xOS45LDMwLjItMzMuNiw2NS41Yy0xNC40LDM4LjEtMjQuNCw2NC4yLTMwLjksODEuNyYjeEE7JiM5OyYjOTsmIzk7Yy02LjUsMTguMi0xNC4xLDQyLjktMjIsNzMuOHMtMTEuMyw1NS42LTkuOSw3NC4xYzEuNywyNC40LDExLDI0LjQsMTQuMSwyNC40aDFjNC44LTAuMywxMy43LTMuOCwyOS44LTE4LjUmI3hBOyYjOTsmIzk7JiM5O2MxMi40LTExLjMsMjMtMjQsMzEuOS0zOC4xYzguMi0xMy40LDE3LjItMzAuMiwyNy4xLTUwLjhjOS45LTIwLjYsMTguNS0zOC40LDI1LjctNTMuNWM3LjktMTYuMSwxMS0yMS42LDEzLTIzLjdsNC41LTguMiYjeEE7JiM5OyYjOTsmIzk7YzE2LjgtNjcuOSwyNC43LTExNS42LDIzLTE0Mi4xYzAtNC41LTEtOC45LTMuMS0xM2wwLDBjLTEtMS40LTEtMy44LDAuNy00LjhjMC43LTAuMywxLjQtMC43LDIuMS0wLjdsMzguMS0yLjQmI3hBOyYjOTsmIzk7JiM5O2MyMi4zLTEuNCwzNi40LDAsNDMuNiw0LjhzMTEuNywxMi43LDEyLDIwLjljMCw4LjItMC43LDE2LjgtMi40LDI1Yy0wLjMsMi4xLDEsMy44LDMuMSw0LjFjMSwwLjMsMi40LTAuMywzLjEtMSYjeEE7JiM5OyYjOTsmIzk7YzQyLjktNDQuNiw4Ny41LTY4LjYsMTMzLjUtNzEuNGMzNi43LTIuNCw1Ni42LDE1LjEsNTguNyw1MS44YzAuNywxMS43LDAsMjMuMy0yLjQsMzVzLTguMiwzNC4zLTE4LjUsNjkuMyYjeEE7JiM5OyYjOTsmIzk7Yy0yMS42LDc1LjEtMzEuOSwxMjUuNi0zMC4yLDE1MC4zYzEsMTcuNSw3LjksMTkuNiwxMywxOS42aDFjNC44LTAuMywxMy43LTMuOCwyOS41LTE4LjljMTIuNC0xMS43LDIzLTI0LjcsMzIuMy0zOC44JiN4QTsmIzk7JiM5OyYjOTtjOS45LTE2LjEsMTkuMi0zMi45LDI3LjQtNTAuMWM5LjktMTkuOSwxOC4yLTM3LjcsMjUuNC01Mi44YzIuNC01LjUsNC41LTkuNiw2LjItMTNjMC0wLjMsMC4zLTAuMywwLjMtMC43JiN4QTsmIzk7JiM5OyYjOTtjOS45LTQxLjksMjEuNi03Ni41LDM1LTEwMy4zYzE1LjQtMzEuNiwzMi45LTUyLjUsNTEuNS02Mi44YzE4LjUtMTAuMyw0My45LTE2LjEsNzYuNS0xOC4ybDAsMGM0LjEtMC4zLDcuNSwyLjcsNy45LDYuNSYjeEE7JiM5OyYjOTsmIzk7YzAsMC4zLDAsMC4zLDAsMC43YzAuMywzLjgtMS43LDcuOS01LjgsMTNjLTIzLDI1LTQ1LjMsNjkuMy02Ni45LDEzMS44Yy0yMS42LDYyLjQtMzAuOSwxMTQuOS0yOC41LDE1Ni44JiN4QTsmIzk7JiM5OyYjOTtjMS40LDE5LjIsNi4yLDI5LjIsMTQuNCwyOS4yaDAuN2MyMC4yLTEuNCw0Ni0yNi40LDc1LjgtNzQuOGMyOS4yLTQ2LDUyLjEtOTUuNCw2OC42LTE0Ny4yYzIuMS02LjksNC44LTE2LjUsOC42LTI5LjUmI3hBOyYjOTsmIzk7JiM5O2MzLjgtMTMsNi41LTIxLjYsNy45LTI2LjRzNC4xLTExLjcsNy41LTIwLjJjMi4zLTYuNyw1LjctMTIuOCw5LjctMTguNWMwLjItMC4zLDAuNC0wLjUsMC42LTAuOGMyLjctMyw2LjctNywxMS4zLTEyJiN4QTsmIzk7JiM5OyYjOTtjNC44LTUuMSwxMC4zLTguOSwxNi44LTExYzE2LjEtNC44LDMyLjYtNy45LDQ5LjQtOS4zbDM4LjEtMi40YzEuNy0wLjcsMy44LDAuMyw0LjUsMi4xYzAuNywxLjctMC4zLDMuOC0yLjEsNC41bC0wLjcsMC43JiN4QTsmIzk7JiM5OyYjOTtjLTE3LjIsMTMuNC0zNCw0NS4zLTQ5LjcsOTVjLTEzLDQyLjItMjQsODEuMy0zMi42LDExNnMtMTQuMSw1NS45LTE2LjEsNjMuNWMtMi4xLDcuNS02LjUsMjYuMS0xMy40LDU0LjImI3hBOyYjOTsmIzk7JiM5O2MtNS4xLDIxLjMtOS42LDM4LjgtMTMuNCw1Mi44Yy0wLjcsMS43LDAsMy44LDEuNyw0LjVjMSwwLjMsMi40LDAuMywzLjQtMC43YzM3LjQtMjIuMyw3MS43LTQ5LjEsMTAyLjktNzkuNiYjeEE7JiM5OyYjOTsmIzk7YzE3LjUtMTcuNSwxNTYuNC0xNjQuMSwxNTYuNC03MS40QzIzMDIuMywxNTc3LDE5NTMuNiwxNzU1LDE2MjguNCwxNzg0LjV6IE0xMDQxLjQsODEyLjVjLTEzLjQsMC43LTM3LjEsMjEuMy03Mi43LDExMy4yJiN4QTsmIzk7JiM5OyYjOTtDOTQ0LDk4OS4yLDkyMCwxMDYxLjYsODk3LDExNDEuMmMtMC43LDIuMSwwLjcsMy44LDIuNCw0LjVjMS40LDAuMywzLjEsMCw0LjEtMS40YzYxLjgtOTQuNCwxMDQuNi0xNzIuOSwxMjcuMy0yMzQuMyYjeEE7JiM5OyYjOTsmIzk7YzE0LjEtNDEuOSwyMC42LTY5LjcsMTkuOS04MmMtMS0xNS4xLTYuOS0xNS4xLTguNi0xNS4xTDEwNDEuNCw4MTIuNXogTTE5MjcuMSwxNDcwYy0xNC4zLDIuNy0xOTAuMSw0OC0xNzIuMyw4Ni45JiN4QTsmIzk7JiM5OyYjOTtDMTc3NS4xLDE2MDEsMTg5My43LDE1NDQuOCwxOTI3LjEsMTQ3MHogTTEzMTguOSwxMDE3LjdMMTMxOC45LDEwMTcuN2MyMi0xLDQ5LjQtOS4zLDU1LjktNDEuOWMzLjEtMTQuOC01LjgtMzEuNi0xMS4zLTM2LjQmI3hBOyYjOTsmIzk7JiM5O2MtNS41LTQuOC0xMy02LjktMjMtNi4ycy0yMiw2LjktMzMuMywxNy41Yy0xNS4xLDE0LjEtMTQuNCwzNC4zLTkuNiw0Ny43QzEzMDIuMSwxMDA5LjgsMTMxMCwxMDE3LjMsMTMxOC45LDEwMTcuN3oiIGNsYXNzPSJzdDIiLz4mI3hhOwkJPHBhdGggZD0iTTIyODcuNyw2NzYuNmMtMTgwLjEsMjg4LjEtNTcyLjYsNDg3LjktMTAyNy42LDQ4Ny45QzgwNC45LDExNjQuNSw0MTIuOCw5NjUsMjMyLjUsNjc3bC05NS45LDU1LjMmI3hBOyYjOTsmIzk7JiM5O2wtNjQuNCwzNy4xdjEzNzEuOWw2NC4zLDM3LjFsOTY1LjEsNTU3LjJsMTU5LjEsOTEuN2wxNTkuMS05MS43bDk2NS4xLTU1Ny4ybDYzLjctMzYuOFY3NjkuNWwtNjQuMy0zNy4xTDIyODcuNyw2NzYuNnoiIGNsYXNzPSJzdDMiLz4mI3hhOwkJJiN4YTsJCQk8bGluZWFyR3JhZGllbnQgZ3JhZGllbnRUcmFuc2Zvcm09Im1hdHJpeCgxIDAgMCAxIDAgNzM2LjQzODIpIiB5Mj0iNDE4Ljk5NTEiIHgyPSIxMjYxLjUyNTEiIHkxPSItMTI0Ny40OTIyIiB4MT0iMTI1Ni44NTEzIiBncmFkaWVudFVuaXRzPSJ1c2VyU3BhY2VPblVzZSIgaWQ9IlNWR0lEXzFfIj4mI3hhOwkJCTxzdG9wIHN0eWxlPSJzdG9wLWNvbG9yOiNGRkZGRkY7c3RvcC1vcGFjaXR5OjAuODMiIG9mZnNldD0iMCIvPiYjeGE7CQkJPHN0b3Agc3R5bGU9InN0b3AtY29sb3I6I0ZGRkZGRjtzdG9wLW9wYWNpdHk6MC4zNyIgb2Zmc2V0PSIwLjU2Ii8+JiN4YTsJCQk8c3RvcCBzdHlsZT0ic3RvcC1jb2xvcjojRkZGRkZGO3N0b3Atb3BhY2l0eTowIiBvZmZzZXQ9IjEiLz4mI3hhOwkJPC9saW5lYXJHcmFkaWVudD4mI3hhOwkJPHBhdGggZD0iTTEyNjAuMSwxMTUyLjhjNDU1LDAsODQ3LjUtMTk5LjgsMTAyNy42LTQ4Ny45bC04NTYuNS00OTQuNmwtMTcwLjctOTguNWwtMTcwLjcsOTguNWwtODU3LjIsNDk1JiN4QTsmIzk7JiM5OyYjOTtDNDEyLjksOTUzLjMsODA0LjksMTE1Mi44LDEyNjAuMSwxMTUyLjh6IiBjbGFzcz0ic3Q0Ii8+JiN4YTsJCTxwYXRoIGQ9Ik0yNDIwLjUsNjY5LjhsLTk1My4xLTU1MC40TDEyNjAuNSwwbC0yMDYuOSwxMTkuNEwxMDAuNSw2NjkuOEwwLDcyNy43djE0NTUuNWwxMDAuNSw1OGw5NjUuMSw1NTcuMiYjeEE7JiM5OyYjOTsmIzk7bDE5NS4yLDExMi41bDE5NS4yLTExMi41bDk2NS4xLTU1Ny4ybDk5LjgtNTcuNlY3MjcuN0wyNDIwLjUsNjY5Ljh6IE0yNDQ4LjcsMjE0MS44bC02My43LDM2LjhsLTk2NS4xLDU1Ny4ybC0xNTkuMSw5MS43JiN4QTsmIzk7JiM5OyYjOTtsLTE1OS4xLTkxLjdsLTk2NS4xLTU1Ny4ybC02NC4zLTM3LjF2LTEzNzJsNjQuNC0zNy4xbDk1LjktNTUuM2w4NTcuMi00OTVsMTcwLjctOTguNWwxNzAuNyw5OC41bDg1Ni41LDQ5NC42bDk2LjYsNTUuOCYjeEE7JiM5OyYjOTsmIzk7bDY0LjMsMzcuMUwyNDQ4LjcsMjE0MS44TDI0NDguNywyMTQxLjh6IiBjbGFzcz0ic3Q1Ii8+JiN4YTsJCTxwb2x5Z29uIHBvaW50cz0iMjI4Ny43LDY3Ni42IDE0MzEuMiwxODIgMjM4NC4zLDczMi40IiBjbGFzcz0ic3QzIi8+JiN4YTsJPC9nPiYjeGE7PC9nPiYjeGE7PGcgaWQ9IkxheWVyXzJfMDAwMDAxMDAzNzU3MzQzMDU2MTQ1NjI4MzAwMDAwMDM2MDE4ODAwNTM0NTUyNjU5MzNfIj4mI3hhOzwvZz4mI3hhOzwvc3ZnPg==;" vertex="1" parent="1">
          <mxGeometry x="490" y="250" width="50" height="57.75" as="geometry" />
        </mxCell>
        <mxCell id="yYz-vqZkxL4f6Y4ajkZT-4" value="Google Analytics&#xa;(GA4)" style="shape=image;verticalLabelPosition=bottom;labelBackgroundColor=default;verticalAlign=top;aspect=fixed;imageAspect=0;image=data:image/svg+xml,PHN2ZyBoZWlnaHQ9IjY0IiB3aWR0aD0iNjQiIHhtbG5zPSJodHRwOi8vd3d3LnczLm9yZy8yMDAwL3N2ZyIgdmlld0JveD0iMCAwIDY0IDY0Ij48ZyB0cmFuc2Zvcm09Im1hdHJpeCguMzYzNjM4IDAgMCAuMzYzNjM2IC0zLjI3Mjc2MyAtMi45MDkwOTEpIj48cGF0aCBmaWxsPSIjZjlhYjAwIiBkPSJNMTMwIDI5djEzMmMwIDE0Ljc3IDEwLjIgMjMgMjEgMjMgMTAgMCAyMS03IDIxLTIzVjMwYzAtMTMuNTQtMTAtMjItMjEtMjJzLTIxIDkuMzMtMjEgMjF6Ii8+PGcgZmlsbD0iI2UzNzQwMCI+PHBhdGggZD0iTTc1IDk2djY1YzAgMTQuNzcgMTAuMiAyMyAyMSAyMyAxMCAwIDIxLTcgMjEtMjNWOTdjMC0xMy41NC0xMC0yMi0yMS0yMnMtMjEgOS4zMy0yMSAyMXoiLz48Y2lyY2xlIHI9IjIxIiBjeT0iMTYzIiBjeD0iNDEiLz48L2c+PC9nPjwvc3ZnPg==;" vertex="1" parent="1">
          <mxGeometry x="490" y="80" width="50" height="50" as="geometry" />
        </mxCell>
        <mxCell id="yYz-vqZkxL4f6Y4ajkZT-5" value="&lt;div&gt;Customization of the analytics data sent from the Shiny app requires to know JavaScript and jQuery&lt;br&gt;&lt;/div&gt;" style="text;strokeColor=none;align=center;fillColor=none;html=1;verticalAlign=middle;whiteSpace=wrap;rounded=0;" vertex="1" parent="1">
          <mxGeometry x="780" y="180" width="150" height="110" as="geometry" />
        </mxCell>
        <mxCell id="yYz-vqZkxL4f6Y4ajkZT-6" value="&lt;div&gt;Customization of the analytics data sent from the Shiny app requires to know JavaScript and jQuery&lt;br&gt;&lt;/div&gt;" style="text;strokeColor=none;align=center;fillColor=none;html=1;verticalAlign=middle;whiteSpace=wrap;rounded=0;" vertex="1" parent="1">
          <mxGeometry x="730" y="270" width="150" height="110" as="geometry" />
        </mxCell>
        <mxCell id="yYz-vqZkxL4f6Y4ajkZT-8" value="Flask App" style="shape=image;verticalLabelPosition=bottom;labelBackgroundColor=default;verticalAlign=top;aspect=fixed;imageAspect=0;image=data:image/png,iVBORw0KGgoAAAANSUhEUgAAAMgAAADICAYAAACtWK6eAAAgAElEQVR4Xu1dB3wcxbn/Tv1UTl0ucpG75SrJRZYs23IDDA6htwABEuCl8CCQwAu8vCSEhIQWCCExeYGXQCA8CM0GU59xwXLFTXKVVSxbltUlq1hd7/vmboXK6W52b/d2927G0c/Emp2d+Wb++/VvLL3YQEHrxsca2jugtr0d6vDv5s5OaOrsggvd3RCA4ykaVME8xCOCAkQBC/704I81MBCigoPwJxhiQ0MgISwMokOCIdBCPeQ3i1yAtCAITjW3wNnWVjiPoKBJSa9WNgX5kxZPCAq4ooD0caa/6WNNYEmOCIfxkREQERQki3jcAGlDznCi8TyUIjg6ewgWogkKmIcCvSjThAQEIEgiYVq0DcKQ0/A0LoCUNrXA4YYGIJCYvRGhRPNjCuD2WwODYGZsNKRERbolhEuAEKc4UFuPXKMZFIpwbiegVQdlmpVWsxHjGo0CpHpPiIqCtPhYCEbOMlwbFiDELXZU1kB1e1ufjmG0RfLMh/iFHrqR4FM8u6NvH/qIJqISnz0iYViRyylACBxbz1VBQ0eHvisw+dsFFzPHBsaGhMCSkUlgDRqqlwwBSFdPL2ypqIQaNN/6RjP+t1wASf+TlhgWCstGjYSggIHyxhCA7EKxqgR1DtG8TwE9oEzHQY/3ep+67t84EZX2zKSEAR0HAKSkqZnpHWZTyN0vXfTgoYC/czJS3LNHJMIE29fWrT6AkN7xUVkFesK7eGgp+vgoBfydm5AJ+NJxo/qU9j6A7Kuph6MNjT667WJZvkQBrX1ZqTHRMC8hjpGMAYTCRz48XQ4dwkPuS+fIp9eipTgYEhgAa8cmQwTGdDGA5Nc1MIegaIICvkYBpSJjOjoQZ8fFgKWrp6d3Y9lZ3X0eShfiaxsqbErG2NEYjAS+DLmIpfpCW+9Hp8+iqc8cR9QcszTGJotZKKBAvwN22TgESEFdQ++e6lplpl0dT6tZAK1gi4Y+oiOdVZm/CQchki9MTADLF+XnekvR/yGauhQQZ1pdeuox2gR0HFreLzndS1mBoulDAQEkfejO89a40FCw/P14US+lz4qN4iGZfn149keLqGUtzan6UZPvzczM+6fDhb2hGKDFswF8w4pe/kgBXzw/QZYAAsiJXkpF9MUF+uNBNfqazcSRKLLXKUDMtAijHwgxP3NRoL+ywQDyQoFyDiI0F3NtvpitPAowgPyRAURfHUSId/I2TvT2DgUYQJ43AEC8s1zlbxEip3LamflJBpA/5B8XSroXd1GAzYvE9vBVdoAcOt5LZU+EmOMhNVV+XL/90O/NKpPQ4+EYQJ5jANFXB/F4JWIAw1FAYclnQ62DAeTZg8cEQAy1LWIy/SmgJz9TFSB6LkQcKUEBHgrIPaMkWVl+jxxkcC0gnpdp1UfuIrSahxhXUIBxkGcMBhC1tkVYi9SipP+OwwDy9AFjcRAjbodaXE1utK1a7zUiTc0wJwaQpwRAzLBXHs1RhAQpI18Quj8sTx44qp0OIj6BynbGoE853U4f3mPyD1qe2KchQAy60WJaggLDUaA/3j0GiA9/PMQJEhRgF+tYfmcQDiLkZHEijUYBBpDf7juinQ5itBXrOB9hdtaR+ApfzQDy+FcCIArpZ9jHhOirztYwgPxGAEQdavrgKL7D9ZR9MqhWg+XXe43CQZQtwgfPpViSFyng6tQ5AHKYWwcRR9iLOydepTsFGEAe28sPEG/O2BkY5YZqKJmv+AgooZpKz+hC/OFfygDyK7kA8R3BVKVd1W4YQWrtaMszMgPIo7sLuEUsnkFFH/NRQJcPtwnIxADySwEQ3beKDmg33k9PfwLxiuEAH75muD8YvSEyS5ur5CMwLECUDKb7KTPhBHpQhqLC4dagQBgXGQ4RQUFwqrkVzuOdkSDkK913lAHkFwbnIL6Q/D94p1k1ffwK0TVfM+NsMDchBpKsYazbqfpG+MuhYxARFQ09Pd26HxJ/nkBIQCACZFd+byAmhoimLQWIK3ehGEUi1OiIMARFLMyItbGbVPu3xtZWuPKPf4GZc9NhdNII6ML760XThwKMg/xcAMQl9T0VN4kDSmLUJFsUpCfGwERbJAOKs3b+wgVY8esn8VLVTli7+mJISkjwC5B4SmctIMQA8l8yAGLERWhBGE/H7K90x6IYNSsuGtLiY2BEuF2MctVaOzpg1ePPwImKCkiIjYVLVq6CxPhEBAnqJf7WdD5wfQAJ8ETE0nkRRjozEjCInMkRVuQWzsUoV3O+gABZ/dvfw8nKSiAeY7PZYM3K1ZAYF+8XnMRI+/k1QHzErKgXVvtboyZHR0IG6hcT8e8gBXRt7+qES598DgrOnIXgwEDoRh0kJjoaLlq+EjmJf4hbRgEJA8jPdub3esRBjLIarecxyOzKuIXDGhUbRmKUDdIRGDxilKupdvf0wOXPPA97ikshBM2+1Agk0QSS3JVMJ+nssotbSkwren1EtN4eLcZnAPnPHYcEQGRQl3DS3dvDlOxk9F2Q0j0zNnqINUrGkEO6XvP8Othy9DiEOgAigcQWZYOLV6yEhLgEdCya37plDFePi1gs5OCWRwggskQB//wGDRSjomB+UhyzRmlRlfLWdS/BRwcLIHSQCZhxEtRJVueugARU3Lv9UXH35Mvj4llnpzokEDnIIzsOygQIOnk1mmT/YZ2JD9547+Cl2cWoXogLC4U58dFMjErisEZ5QqIf/v01eGPnHggLDh4yDIHEhubi1ShuCZ3EEyq7f5YB5GEFAHE/tLl79Dn1AgDGRIRDBlqjZqKpNnLQF12rVT785jvw4qatYA0ZCpA+nQQ5ySrkJPGouBNoRFOfAgwgP81DDuKJmVf9eek2InEL+gnH2Kip0XYxahJao4Zz6mk10cc3bISnPvx0WID010lWLfdc3DKGLqAVNZWPywDyHwQQWTqI8hca9UkCBekY8Q4xijiGp9YoT9b64qbN8Mhb7zkVsfqPy8StqChYieJWgh9xEiWithKLn6YAMXqdK8mpR3FoY9CpNw+5BXm8vSVGuQLQGzt2wz2vvI5KunMRyylI0E8Sj85EIW558mka+GwoWbEeyjvgNxyEQCFZo8LRhDo1JhIWJsVrZo1SulWfHCqAb7/4MgThBvE0u+JugxXLSNwiZ6IfhqXwEEpmHwaQB/0EIBRJS38SUIyi8HLyduspRrnaq11FxXDVc39i5kILp/hLIIlCcWsFiVuOsBTOR7mOjT/qKaGkg/xku+9yELs1qgd9FQEsIWl+UiwTowaHmHOdEC92Ona2Ai596jlow8QpOfqhXSexQe6y5X6lkzjbGjXyiBgHIYAoUWDcnReeMZUoW+7eS78nMaoLfyhDb3psFCwcEa+LNYpnrs76lNfXY8DiM9DQcgHkWhglcSt3qR0kXY6wFKVz8efnGEB+/OV+n9BBJP0CJSlIsIZAGopR8xLjDCtGuTp4DZg0RQA5XVfPuJ/cJolby1EniROKu1zy9fVnAHnA5AAh2bjLERs1LiocFqA1ajbmXhjBGqV0Zzrwq3/Jk8/CYUdEr5Jx7CCxi1tk3aLMRB6uLr3LH3WOwXRmALl/mzk5iOTUk8SoRSPNJUa5OvRkTLjmuT/D1uOFAwIW5QJFigLOXboCYmJi/dYEzCPKO/t4GA4gPAuRQswTMMScEpLmoeI9UuPYKLkHU43+d770d3h37363zkJ375JAsszPQeKOTs5+z6xYPzIRB+lEBWNcpBWyRyWgGGUMp54SwvM88/Cbb2M81jaX4SY841AfO0hiYBkq7sRJRCEIPsoxgNxnEoCQVSoDFe/rp4yFME4HGh8ZjNnr9x9/Br967wMIDwlRZYISSJY6QGIWj7t3dCHnsgsDyL1b5eogPIKQKnvaNwhZpuLCguH+tGmmVr7lUOW1vJ1w76tveCxi9X+nJG4tWWLnJGYBiRy6qdnXAZB9hjXzSlDsRGcfRdbeNj1FzfUbeqxP8w/DzX/+a1/arVqTlThJzpJcARI3RGUA+fetxgWINH8Sr1LQhHvvnKmaZPCpdfjUHGffqTK4/OnnWXKaHPMszxwkTpKDnCQ6JkZwkmGIxqxY92z9yrAcZIB4gCC5dVoK83P4QyutroFV6CykMkC88Vhy6GL3uEdDztJcVOBjvV/m1PuSOiOPnNfaAbLFNUDkDChng1z1pS/m4PeSeXc0mnMfSJ8GNHFfb/UtLbD8N09B1fkmWfFYcugiiVuLc5YxkAidZCD1GEB+uNkcHISm3tHdA9ehFWv5mCQ558CUfcmbftHvnoFjZysx7F1+uAnvoiVOsjgHOYlQ3AeQjekgPzARQIiLxGMpzwcypkH0MPnavAfDDP2ueu4F+PJ4ESrq2nJMiZNkLUZOgjpJD36ItGxGT6aT1s44yPc37+0dLudaD/HK3caQRevS8aPg8gnJ7rqa/vc/wOomb2J1E57MQk8XyzgJOhOzmbglFHeiZx9A5OQceLoRnj5PoeyUDfgT1EW0Lr/j6Vw9eb4TD+yP/vEG/O+uvR7FY8mZgyRuZZG4JUDCHNKW73+xt1cLK4mcjZHbl7jI0tGJ8K1p4+U+avj+dP3Bx5hy+4/tO+HAqdMst8WbrcfBSRahuEUcxZ8VdwaQ75kQIHRkSCy8P20qTLBFePP8aPauM3V18PaeffC/KFIVnqukXFsIoQ1SM2+Wc/YSJyGQ+LPiblqA0D6Twp6E4ScTetqgoroKZo8bC99In8t5BIzTreBMOfxzxy7YsP8QlNc3sAQpququdyNOEoV+kkWLc8Hmp85EBpB/MyEHkQ4PcZKqmmrYsvlzWDtrOvzt7u/ofa643k9i0/YThfDqlzvg88PHgK5do0rugQqyB7leqLCTxEkymbhFfhL/qpZiJYDcvWmP6XSQ/vsdiIuoqa2BiuP58P4P74KYCOOKXC3t7X36xc6TxdDR1c0KVBvZSMIyE5GTZGYvRU6CHneTlzmVo9EZFiByFkFgCcAvb0N9LTy0YCbMHT1K4fdSu8cqGxtZ8tMbO3fD0fIKFiUQHBhEaobL1oNhzF14zYF0T4h2M3QzDwRFJIEEOUkUKu5mBwkvHRlA7jI5B5EW24liy1UTk+Ey9JEYpZ1AZfsN1C8IHFSAgUQoHv2CEpo68GcUXpozI3kU7CwqYRXm9Wx2P0k0LMj2H+sWA8idPgIQKgxHJX4eQMuWniILHeSdWPiN9IvPCo5AXXMLBKN+wVOdhHwfdMPUhMQEuHpBBtyYtRBsVisse+wJqG5q1l1HIc5BnGQhgsQfOIkdIP+nnw7iNuRAxkeTutKCHl6QqkuOOt1O+zkCgvwXO04WYRRuJxON3IGVAEXcgmoEzx6TDDdlL2LWuISoyD6GceMLLzJlvv+NU3pxEwkkC7KWIEjMr5O4oqMVQ3ws3/18t6mV9P4L7MQYoltTU7wazFiDX/b39+1HU+1uyD9djmHjvSx2yp3/gjgFBSRaMaV28dTJcEvOIlg5cwZYnRSsfu6Tz+HRdz9QJT9dDWBJIJm/aIlPW7cYQL7z2S7fAQgeujmYt/4jDENRO8lo8MEqqqrGOKndzLlXWlOLnAL1CyKomxNIwCBRKg6tbRfNmQE3I8fInDzJ5XN7ikvgymf/pEnylFLA2EFig3mL0LqFYlcPrsvXmmkA4lYUc+wM6bFheEh/kTkLEq2hmuzXVyWnUIzaARvxDsHa5mamdPP4LwgUpHyPi4+DK+dnwA2oX0wdOYJrjk1tbSz0vaSqVtPQd67J9OvUgxa2yKhoBEmOT4alMIDcwTiIXNIYtz/ljJCYtWrsSNUmSaLQF3jr7CvbtsO24yeB/Bk8jj1yCNKzpIekojXqpqxMBEc6JOGXV26jyF4KQ3F2b6HcsdTs/zUnIZ3Et2K3GEBu9zGAUCDj9FgbPDQv1eOr0yirb8P+g/B63i44UHYGPck9XPoFKd7tCAxyAmZOmgC35mTB6lkzISJUOVeTc6mOmgDgGcvOSWyQgTpJlA39JD5wRTWt2ycBQiWCApEj/nT+DFbRXUkrq62Ff+3+Ct7EUPOTlVVMv+BJWpIU7+hwK6yaNQNuWZwF2VMmcYlg7uZZhPO45IlnGfcix6jRmqS4Z6C4RSDxhShgBpDbPt3pM0q6dGg6kIusHDMCbp8xQdY5OnT6DLyGZtr1yDUqG88z/YLHsSfpF6NjY+DyjDS4eXEmpI4eLevd7joT+K549gWgEBUjmHudzVcCSXomgsQhbimV3mVY+N2RTvHvGUC+7YMAIWU9MjgQHl00i91v7qqR4rwNi0S/8mUebD56Akgh5lG8aQM7MZaKDAjTRo2A6xbOh6sXzoPk2FjFG+LuwSc+/Bh+u+Ej1aotunufkt+TeBURaRe3Ik0ubvksQGhj21FfuBYLPFyJ4SfOGiUmfXQwH15FjkGWKeIC9GV257+QFG8C0fwJ49F/kQVr5syGKGuYkvMk6xm6mo3MvRb6o/TTLOuNyjpLnCStHydRNpK+TzGA3OqDHITISvkicVjg4Zdo8o0J/fq2WLq96R30XbyBFqETFee4E5MIGO14JZoNgbBs+lS4dUkWLJ0+jSuERK1tJm89mXtPnqs2lLnXqbjl4CTpjJMY208yXJybYoDoHTjHe+DI5HsNcpGrJ43By2goMWk3rN93AMobGiEYFV2eW2S7cAyKqB0RbcMQkDkYH5UJczE5S6/28JvvYNX3rYbxqruigyRuEScxo7jFAHLLJ6Sk67Xd2r6XLFo25B5BlWWwPi8Pzrfx+S/oA0AiF3GNSSMS4VrUL67LnI9OvnhtJ8wxel7hSbju+Rc5ehqjC4lbEchB0hYuZiAxk3WLAeTmj30XIHREelFeb25ugiNf7YCmhjoIcJHOygIH0X9BSVhp48agNcoeOBgdHm6M04azaO1oZ/cXFlfW4DyNZ+51JW7NzURxCz3vZvGT+AlA7AlVbRda4NDu7dBYh3FTg0BCAYbk2ItEi9eSaZMRGFmwPBVLnDoJHNQLKQTezejNX7dpM5p6S9j11mZi/ExxR9Pv3IU5EI5WLjOAhAHkWz7OQaQDTSC50OoACWYfEpcgMYp+EjG0/JK5s5hjb/6EFL0wMOx7tx0/AX/+fDNsOXaCpemGoIfeTOCQFsYKQWDa7hwUtwgkJG6puQ61fScMIDf5CUBok+ycpBUO7NoGtVjsgRKTrkHfxXWZC2BiUqLhgLH9xEnGMTZhLggLXeEwQxtuEYMmJHGSOSbgJH4HEHbXBoaNJAZ0w5yQHlg7dzYk2qIMd6bI3/Hipi2YgHUULnTaE6/U/NLqvWASr6JssTDLwUmMmuPOAHLjRzt8LtRkuANAALmNEqrGJkGwAU13uzHvg4Dxaf4RaG3vcFvxhPQSd45NvcEw3PslTjJ7gXF1EpMBxDMJk4WGoDJ+9eRkuGHKOEOdm32lp+C/N2+DjQfyWTCiO1FKStNloe8IEs8oox8pWBQwmn4ZJ4mIMlzSlZU49w2Mg+hHJG++mfwa9FX41aLZMAavk9a75WNw5F++2Aob9h2EZk5gSLrI6tkz4M7cJaijbMGQmQLD5Ynw0lbiJLMWIEgwZH6wuKUn+KlIuioA0XMRvBsh9SPv+tLkRLh37hS5j6rW/0j5WSZKrUdgUEwYmZNdFXcg+pJ/huK/Vs6cDnevWAY5U+3z311cDNf8YR1mK/a4LRCh2gJUHkgCyUwCiYFMwAwg1/sRB6F9ZeWlkGM+Mj8VZsdHq7zVroej2K8XkWO8/9UBaHCUG+UFxtLpU+Cu5UthxYzp9gX0a/e88jpL6qICEGZtkrhFILFGorhlgAqO4WROv25jnt+IWNLhIV0kFWto/TxzJovJ0rpR0tVfN2/FIMn9UItZiqRjuASGw6NPsWKUcPW9VbkIjNRhnymuqoI1T/4BmpAbGTGZipe+EieZMT/bqbjFO45a/fwWIERASqr67oyJcGmKdpUYqfLJy1u2sexEKg/Ek8cu5bAvmjwRvr9qOWYmEjDcg/jZjz+Dx97/0LS6iHSoWYBjVAzMWIggidDX494HEJ8ysnN+PigcPgbvOfxN9hxIUrkCSgle4fw3LPDwFqbsVjY2uTXXMsCijkEmW8ph/7eVy+AizGHniTaWltuMiV7XPr8O9hSX+gRIyLqVOi8brKi49+okbtkB8mEexfNp0oyuvFNS1fIxiXAflitVo53GS3Be2ZYHr2NY/TkMqXfHMSTlm8i/YGIK3LViKUu+UlqseidWdKRIX4rTclfRUY31ajmGJG6lorhlJcVdB5AwgFyrIUC0JKAaY9MBJdPvA+lTIXtUguIhKQmLSo6++uVOqGhocAsMehHFgJE/IyNlHFO+L0ubo0pw5FOUlvvBx6bnIkQjSdyyg4QUdwzQdPExV7u+NwPINR9ox0EUnzgvPkii1sjwUPh19myIxQxEOa3q/Hn4O3IMAgfdDsWTyy4VqE7DpKs7ly+By+elYblRee91Nce2zg64dd3LsOnIMd8BiSRueVknEQBxnDQStVZi+Mm9aXy+EVK4X92exzgGlR2luwTd6QukYxC3mj02Gb6LDr6rsLqiVmbZ0poauApz18/glQtKxTU5Hwqt+7KkKwyVn046iRfFLQaQq/2cg9DmkqjVjabf+9ImQ+6YpGH3m0qNkr/hFbzaoBgVceIY7q41oKopVLInFS/2+Q4CgyqfRHpQQI73MG7FEPlb173E8uh5SqPyjqtXP0ncmo7iVhiGpfR6oRawAEi/3ab7Rai4w2NZs4aEodS3tGIRud3wP1u3YyE5LJgQQBzDtelVEqWo/u53c3MwrH4+u+vDm+21vJ3w49ffYtYxsyvtTCdxcJJpGZJO0q0pORlArtqwXTMrlqaz12BwCkOZkxDNHIghCAAKA6Hqii9v+RKOoxecxCh3heSIYxA4Jo9IQo6RA9djromeKbt/wKsTyD9Cc/cZkKBOMm1eFlg11kkEQJyAjByI35w4GqwNlSwQ8OhZBAZHBRTpWgNKwrp96WK4ftECiI9UVvpUbez/dsNGeHrjp/a8Eh+ITLWLW9EwFXUSLcUtBpArBQcZch6pGsqpEwVQXnjEruS6OFQUJNiJ1yOPT4iH25Zkw43ZmZjCa7wkLDL/PrHxE6xbHOAbOgmrlhLDQKJV7JYAiKtPNXKN8hOH4QyCxOIkXsteqLobgREH30JQUKEHqp1l5PYipu/+6r0PmSPRnXHByOuQ5iYp7hInUbsQBAPIFYKDDHsWCBhnECTESSSQSMAYGx/LLtn8dk42jIzxblSwJ4d3w/4D8NAbb7NLQY1aBFvO+iSQTMnIgjB0Jqpp3TI0QNT2isohutSX5HX6IZCUFR62X82MYLgB9Ys7luVoWqhayXx5nzlYdhp+8s+3WNwW+WLMrryTdSucxC20bhFI1ApLYQD55nphxXJ9sDC2Af/XXFYIS5Ki4Q70fo+Ni+M9i4bt19h6AUNSNmLs2A7UoewXA5m5EScJR8V9SsZih+LuuQnY0AAxUqAj+UiWYVDjgxnqBDUa6SB+mn8YHl+/EehuFHfBld6cN4mykq7E6+iUxK1JKG6pYQJmALlccBCufe9Cme+GKWPglunjufqbqRNlN76ERSNeRkdohSMK2VtKPIXfkO+IEr1I1GM1kREco2Iw3D15JJZYrYYzjjg3HpoykKC4NTk9C0KZx30oJ+EV3x0A+dKQjkLeRfAQTY0+UjjKTdPGws0+CBKi0SmMK/ufrV+yBK9zeMMWT8SAUtpKfiMq90pO1arzTVDX3ALpKWPhiox0VumSLiMqxZCe6zDP5VRtnVsnbX/rFolbk9OzESSRihV3BpBvrEeAiMZFAX8ACRGiDIHy1u698B7mzp84V8kKQtAd8CTqeJo6JIlOKeg3umTOLLgCb/2dPSYZuUQ9VCNI5qWMHxL4+T5eWXH3y6/g+93fQz8QJDEwKX2RbGeidL2H6QGixz0l9vpaPXA93jty24wU01uAXH0ZqEYXlT/98MAhyCssYtHB5PsJCLAwPwqJRXIAQ+Agh+qPL7sYVs1MhRgZVfPveeU1DBTdI+teFLt1Kxompi1SpJMwgKx9f5vgIFz84+tORDBSINeOHwF3zZmEcVvobffxRuLPgVNlkIdZi3RlXXFVDdS1NEMbRgtTdXwKNiAdgpnGGS3s18Sxw+UobnehoxODNjPg5Ttvl00tAuc3f/88gtSed8Pb7NYt5CRpmQ6dpIf3UTAUQMyI0nb8QuUkRsF9GakYkOjdSF3uXdaoI4lDdF02FaagnBg6wPRvjRjg2YZA6MDwmw4KtcegT7KOhQYFY8Yk3euYAj+74huKOO+/UOz7wd9ehyCqmStjXRJIiJNQ7Bavx50B5DLBQWSQemjXNhQ5Jof2woMLZhqyQrxHi1P4sHQttpQbT6kBwchlPXVIkkh9219eZpUk5SaCESiskdGok5B1i09x9zmA6GH5IjGCMhIjWuvhR/Om4wWf0xQeK/EYDwWIi3zvb68pCpOROMmEuYu4QBJBHOTS94QOwrMx7vp0o4zYVFEKN08ZjaVBc01dwM3dWvX8/Qufb4Kfv71ecb59H0hQ3AoNd+4nkdYnAKLqTlugB7nJ2aJjMD8yAB69+gpIjotV9Q3+PBjVsN9y9ARQmdXaphZmSVPaGEjwfpIJaVkQYg0f1k/CALJGcBCldHb6HEX9lmFwo7WxEn525Vq8BDRN1fH9bTCqHPNZwRF4d+9+2F1UwjztvKEnrmhlT9+NhRQUt0LCI5yCRABEo9MWgA6t8qKjcO5kAUu5ffAba2A0hk6Ixk+BvSWlLN2ZwHEGvehkM6bqMWpmRA7kJBFDrFsMIJcIDsK/a9w9sUgCcpLKkuNQfHgfuwvx3ktWYZj8QtnWF+5X+ljHNU8+y5yU4VgBRsu4MAkkKaiThFgHchIBEI0PFYlb1aUn4PTRg0AF6nLwiun711yEV037XlSwXFL29FJ5VOeVYfbiVXQ3//klOI/1hj01DfPMi3nco+NQ3KD6JPoAAAjuSURBVMpkIJH8JJHEQS5+d6sZfXQ86zZEH7qTvarkBFQU5jOvcxgWzL549kz4weoVLO7InxpF7X6F1839c8cuFq370No1fctv7+rE+9+LWaDkJ4cOQxOCQw1dg5e+dpDEwnjSSRgnwevhBEB4yedZP+IkNacKoQILQVCgA1VZpOJxq/AatTuW5kAWXnWgpmzt2WzVf7oQAx4/wbyTD/cfgvwz5ey6ueTYGHj6putgDFr6vsAyqesxIPFweQWjDTkBvcE5Bq+UQGFF6xaBJBitWxHo4HTJQQRrUe+wkE5SXYogKSxgYRJEW7pvkC7izJ46CW7KymS3R3m7uJx6Kxw4UjGGoFB1R/J60yWldVh8jyqqUBwVOVcpcJFAQFHCzW3tjFtQ7S7lxlt1ViJxknEobsVhoKPlIiFiqUNZjlFI3KpGcescgoQ1PCCUMCTdDTJ5RCKr8r4Wf2aPHeNVEYNj+i67tON97seRU2xDUHxx5DhQ3ntdcysDw3BFvSl0hD4UenALV4thJuCYOFYLWADE8TX39IDwPE9fR7viXshAwr6W/WpuUd5FF2XEofg1c8xoFhKemzqN1fXVqtA1z7yd9SF94jQGKB5CIFAoPBWAoMBFCpGnA2/2So5UHSUpcQRYVr8jlHSlh0Tpc+QnqS49zvwkLDh8UGE6+rJSIQUSQ8LxSoaJSQmwYEIKZKKuMnfcGFY0wtuAqce7FSnj8AjqCQfKyhAYZxggGrD4A3FBVn2SEpr0lpGUboqT52yYryIAoiJB5QzFOEnJMag8STW3GG9x+jiBhaJiibvQ4bNZw1gq6tSRSTAdOcsULI5NSUgjbDYWch+OZXyUKPx0yC90dLB6xHS9A913QtconDxXBSfxktCymjpWS4v60JxIZ5B+5KzbTH2jIyLAsuqdLUIX12nXLKi01iAnqSxCkLBPr/vPLx1O4ix0XQMd6kAEF92zHhUWBrERVojDesCxCJTYyAj2b1b8HXGb/qCh51tRFLqAZuemtgvQgAp0fQv+3drCOAIpzW2oU1A/aiQyERikhCidyOX11wqAeJ3kg1+IAhYe8OriY1BVfNSpuMUzRQINgYV+pP+m53jC/wmXJOaxvx3XJPgbEIajsc8BhOdA8Bw4r/ZxpKnWYFhKFXESF+KWV+clXgZ2gLy9xZTnytf2j4lbpxwg4RS3fI0GRluPAIihdsQhbqHiXu2BuGWoJZl8MgwgKwUHMdA22kFSS+JWMb/ibqAF+NRUBEAMup2kLNdgFHC1AImuO+QAyGahgyjcBq0Ix2pLUYAjchK7uEUWYPcmYIXLEI8NQwEGkBX/EgAx5glxiFt9nMT1rbrGXIO5ZyUAYoL9Y5wEuQhxE2dXwZlgCaadogCIKbbOXs6zuuQo1KLXnczBonmHAgIg3qGzCm+xe7pr0AQsOIkK5OQcQgCEk1DG6ObgJChuMU7i5OZdY8zTd2bBALJcKOnm2VFWOR1NwCRuCZ1E830TANGcxNq8gIWlCJBoQ9x+owqAaE5irV5gF7fIumUXt/hC5bWaja+OywCS+5bwg5hyg/uJW3UY5CisW+rvogCI+jT1+ogEjFrJBCwUd1XpLwCiKjl1GkzKJ0Fxq475SYbmuOs0M9O/VhFA7IVaRDMUBRz3ApJli4FEcBJVtocBZNlbX2gVc6fKJHUfxCzfA8Y40LpVdBjqywoRJPwXXepOY4NOwA6QNwVADLo/8qfl4CQ1mLpbf/qk4CTyKTjgCQEQDgKahYFISyEdhOZcx0AiOAnHFg/bhQFkqeAgntDQoM/aY7dqBSfxaH8EQDwin8EflhR3zEqsLxPilpLdEgBRQjUzPePIQqxFkDQIkMjeOQaQJULEkk04Uz0gcRK0bjUwxV1Yt3j3TwCEl1Jm79cHEuQkwrrFvZsCINyk8oWOrMYos24JkPDtZ1yUDSxXbMjrrbnQzveE6GVyCkggkcQtSt8V1VKG29TxiYlg+f6mfb0HqxtNvvFi+twUcCju9aS4C3HLJdnmT8K7Ix/ffaz3g5IKbvqKjr5AATvXqCvKh8byYqG4D7OlN2QvAsv7RWd7n9h73Bd2XaxBDgUcnKSuqAAazxQJkDih3RN4C6+lpLG5947PvoIOvMFIND+jAIEEQ1UZSAQnGbD5YXjp0Maf3AcWvN6r94dfHID8Gv/UQ8wWa6U6hBlI7OLWeQGSPvKS/vH2PXeDBW8k6n37ZDk8s69QddqLAU1CgT6QFCBIhLhFu/bY9VfDbYtRByGA1LV1AIlZ1cLca5ITrcE0+4lb/s5JRsTEwMcP3geJeM8jAwiR+9WjZbAuv1gDyoshTUMBARK2VQ9efhn8+6pc9t99AGnGG0/v/HwflDW1mmY/xUQ1oICf6yQT8VrtD+6/B2xhoQMBQv8vr6IWfrq9AO/l9nvVVYOTZ6IhyU3CFHfSSfzHTxIcGAh/vet2WJk6rW+z+jiI9C9/OlQE/zhWZqLdFFPVhAKSx/2k/4Dk7lUr4GeXrxlAziEA6cTL4/9rxxHYUl6tCd3FoCaiwACQlPh0jvua9Lnwx1tuhNCggekAQwBC20f6yCN5BbCnst5EuymmqgkFJMX9ZD40nS31SY/7ktTpsO62b0G0NWwICZ0CRALJb/Ycg81nBCfR5OCZaVAHSGoLD0FzxSkfAokF1qTPgadvvLZPKR+8LcMChDqSuPXXglJ4/XgZdIvqWWY60urPVeIkCJKmswgSVGjN3IIDg+DOlbnw4zWrIMTFWlwCRCLA9rO16CMpgqLGFjPTRMzdUwr4CCeZnpwMP0VlvL+1ajjScAGEHm5BveTdorP4Uw4VLW2eklo8b1YK9OckJhO3kuPi4NtLF8PN2ZnDilSyRCxne9jQ3sksXJ+VVcLRuia40NVt1q0W81ZKAQaSHqgrRMXdSCAhNcBhebMvzQLhYSEwd/x4+GbGXLhk9kxIwPAROY2bgzgblLzuBbXn4UjdeTh1vhWqWtvgXGs7OhpF6LycTTBl336cpLnqLAC7xEe/RlfTBQUFQXJMNIyOjYEpSUkwN2UsZIwfB5MS4xVP7P8BNZT9veTK4kQAAAAASUVORK5CYII=;" vertex="1" parent="1">
          <mxGeometry x="350" y="239.9999999999999" width="50" height="50" as="geometry" />
        </mxCell>
      </root>
    </mxGraphModel>
  </diagram>
</mxfile>
